PathFileType	4	(X/Y/Z)	C:\Users\willi\Documents\UniDataLokal\DATA_Hans_PhD\TD03\3DGAIT_B_W4\marker_experimental.trc
DataRate	CameraRate	NumFrames	NumMarkers	Units	OrigDataRate	OrigDataStartFrame	OrigNumFrames
100.000000	100.000000	3	137	mm	100.000000	157	210
Frame#	Time	LFEO			LFEA			LFEL			LFEP			LFOO			LFOA			LFOL			LFOP			LTIO			LTIA			LTIL			LTIP			LTOO			LTOA			LTOL			LTOP			PELO			PELA			PELL			PELP			RFEO			RFEA			RFEL			RFEP			RFOO			RFOA			RFOL			RFOP			RTIO			RTIA			RTIL			RTIP			RTOO			RTOA			RTOL			RTOP			TRXO			TRXA			TRXL			TRXP			C7			T10			CLAV			STRN			RBAK			LASI			RASI			LPSI			RPSI			LTHI			LKNE			LMKNE			LPAT			LTUB			LTIB			LANK			LMMA			LHEE			LTOE			LD5M			RTHI			RKNE			RMKNE			RPAT			RTUB			RTIB			RANK			RMMA			RHEE			RTOE			RD5M			LTH1			LTH2			LTH3			LTB1			LTB2			LTB3			LTB4			LTB5			RTH1			RTH2			RTH3			RTB1			RTB2			RTB3			RTB4			RTB5			LIC			RIC			CentreOfMass			CentreOfMassFloor			LHipAngles			LKneeAngles			LAnkleAngles			LAbsAnkleAngle			RHipAngles			RKneeAngles			RAnkleAngles			RAbsAnkleAngle			LSpineAngles			RSpineAngles			LThoraxAngles			RThoraxAngles			LPelvisAngles			RPelvisAngles			LFootProgressAngles			RFootProgressAngles			LAnklePower			RAnklePower			LKneePower			RKneePower			LHipPower			RHipPower			LWaistPower			RWaistPower			LGroundReactionForce			RGroundReactionForce			LNormalisedGRF			RNormalisedGRF			LAnkleForce			RAnkleForce			LKneeForce			RKneeForce			LHipForce			RHipForce			LWaistForce			RWaistForce			LGroundReactionMoment			RGroundReactionMoment			LAnkleMoment			RAnkleMoment			LKneeMoment			RKneeMoment			LHipMoment			RHipMoment			LWaistMoment			RWaistMoment			
		X1	Y1	Z1	X2	Y2	Z2	X3	Y3	Z3	X4	Y4	Z4	X5	Y5	Z5	X6	Y6	Z6	X7	Y7	Z7	X8	Y8	Z8	X9	Y9	Z9	X10	Y10	Z10	X11	Y11	Z11	X12	Y12	Z12	X13	Y13	Z13	X14	Y14	Z14	X15	Y15	Z15	X16	Y16	Z16	X17	Y17	Z17	X18	Y18	Z18	X19	Y19	Z19	X20	Y20	Z20	X21	Y21	Z21	X22	Y22	Z22	X23	Y23	Z23	X24	Y24	Z24	X25	Y25	Z25	X26	Y26	Z26	X27	Y27	Z27	X28	Y28	Z28	X29	Y29	Z29	X30	Y30	Z30	X31	Y31	Z31	X32	Y32	Z32	X33	Y33	Z33	X34	Y34	Z34	X35	Y35	Z35	X36	Y36	Z36	X37	Y37	Z37	X38	Y38	Z38	X39	Y39	Z39	X40	Y40	Z40	X41	Y41	Z41	X42	Y42	Z42	X43	Y43	Z43	X44	Y44	Z44	X45	Y45	Z45	X46	Y46	Z46	X47	Y47	Z47	X48	Y48	Z48	X49	Y49	Z49	X50	Y50	Z50	X51	Y51	Z51	X52	Y52	Z52	X53	Y53	Z53	X54	Y54	Z54	X55	Y55	Z55	X56	Y56	Z56	X57	Y57	Z57	X58	Y58	Z58	X59	Y59	Z59	X60	Y60	Z60	X61	Y61	Z61	X62	Y62	Z62	X63	Y63	Z63	X64	Y64	Z64	X65	Y65	Z65	X66	Y66	Z66	X67	Y67	Z67	X68	Y68	Z68	X69	Y69	Z69	X70	Y70	Z70	X71	Y71	Z71	X72	Y72	Z72	X73	Y73	Z73	X74	Y74	Z74	X75	Y75	Z75	X76	Y76	Z76	X77	Y77	Z77	X78	Y78	Z78	X79	Y79	Z79	X80	Y80	Z80	X81	Y81	Z81	X82	Y82	Z82	X83	Y83	Z83	X84	Y84	Z84	X85	Y85	Z85	X86	Y86	Z86	X87	Y87	Z87	X88	Y88	Z88	X89	Y89	Z89	X90	Y90	Z90	X91	Y91	Z91	X92	Y92	Z92	X93	Y93	Z93	X94	Y94	Z94	X95	Y95	Z95	X96	Y96	Z96	X97	Y97	Z97	X98	Y98	Z98	X99	Y99	Z99	X100	Y100	Z100	X101	Y101	Z101	X102	Y102	Z102	X103	Y103	Z103	X104	Y104	Z104	X105	Y105	Z105	X106	Y106	Z106	X107	Y107	Z107	X108	Y108	Z108	X109	Y109	Z109	X110	Y110	Z110	X111	Y111	Z111	X112	Y112	Z112	X113	Y113	Z113	X114	Y114	Z114	X115	Y115	Z115	X116	Y116	Z116	X117	Y117	Z117	X118	Y118	Z118	X119	Y119	Z119	X120	Y120	Z120	X121	Y121	Z121	X122	Y122	Z122	X123	Y123	Z123	X124	Y124	Z124	X125	Y125	Z125	X126	Y126	Z126	X127	Y127	Z127	X128	Y128	Z128	X129	Y129	Z129	X130	Y130	Z130	X131	Y131	Z131	X132	Y132	Z132	X133	Y133	Z133	X134	Y134	Z134	X135	Y135	Z135	X136	Y136	Z136	X137	Y137	Z137	

158	1.57	565.7252807617188	482.0742797851562	196.5313110351563	900.7833862304688	619.4116821289062	215.3418884277344	567.5911865234375	526.80615234375	-163.2948608398437	427.1182250976563	814.665283203125	237.1587066650391	393.2996520996094	95.44563293457028	148.8913726806641	522.5047607421875	239.04638671875	129.3138427734375	318.33837890625	139.2144012451172	-24.78512573242186	269.2623291015625	218.5778503417968	233.4586181640625	318.5147399902344	189.3747100830078	218.96923828125	540.95556640625	-13.6678619384766	21.05552673339847	155.701171875	303.85400390625	-81.46749877929686	550.65234375	464.2278442382812	197.8994140625	434.6454467773438	54.40156555175778	120.7022857666016	477.7138061523438	102.2684936523437	114.1764373779297	409.6583557128906	68.99114990234372	62.81012344360354	393.2996520996094	95.44564056396482	148.8913879394532	425.8899536132813	816.206298828125	303.864013671875	558.77978515625	804.0913696289062	306.5907897949219	428.3464660644532	813.1245727539062	170.4534606933594	438.0625915527344	949.0883178710938	301.0186462402344	419.1057128906251	477.1099548339844	351.7298583984375	758.3267822265625	473.5986938476562	315.1758728027344	382.8062133789063	496.4351196289062	13.0141296386719	424.6617126464844	817.7470703125	370.5692443847656	502.449462890625	54.17899703979489	379.7391662597657	502.4786376953125	247.6217803955078	379.2099914550782	533.964599609375	53.65212249755856	188.8808135986328	311.5903625488281	54.12155532836912	348.2240905761719	368.9813232421875	66.69484710693357	344.9043273925781	747.065185546875	19.19212722778316	424.6972045898438	448.9589538574219	63.26349258422849	-36.0978088378906	416.1723022460938	453.0917053222656	351.3304138183594	566.0691528320312	54.19816207885739	390.2441711425782	566.078857421875	118.6791076660156	390.0678100585938	576.57421875	54.02257537841793	326.6247253417969	502.449462890625	54.17898178100583	379.7391052246094	438.8412475585938	1285.167114257812	300.3830261230469	nan	nan	nan	nan	nan	nan	nan	nan	nan	333.6071472167969	1353.93798828125	296.1498413085938	306.4516906738282	1050.780883789062	294.1319580078125	443.3244628906251	1285.393676757812	300.6983337402344	493.5200195312501	1121.956420898438	310.6221008300782	303.1564941406251	1256.401611328125	417.7442321777344	475.6979675292969	898.725341796875	194.7643280029297	471.7201843261719	903.7156372070312	410.7969970703126	303.5973205566407	912.8536376953125	253.5849914550782	305.1246948242188	920.3252563476562	338.5147094726562	524.7490844726562	596.3472900390625	92.09117126464847	566.0493774414062	489.8462219238281	134.0133666992188	572.6424560546875	469.7254028320312	259.8550720214844	624.559326171875	462.9937438964843	180.5272064208985	580.8284301757812	406.6801757812499	178.955307006836	363.9630126953125	326.9583435058594	128.9008178710938	301.3471069335938	201.4457855224609	187.2901763916016	343.02099609375	180.4031219482422	254.96337890625	243.8143157958984	192.0701599121093	243.7124938964844	372.4429626464844	74.19818115234372	156.169677734375	329.3912963867188	84.67235565185545	124.668701171875	431.6502685546876	530.3079223632812	463.0337219238281	426.0208129882813	473.428466796875	416.2560424804688	419.9395751953126	472.4786376953125	280.1485290527344	487.7923583984375	457.7867126464843	341.6120910644532	469.3099670410156	394.9006347656249	350.1123657226563	365.6348266601562	193.1919708251953	436.0681762695312	361.2777709960938	67.02536010742185	381.6030578613281	385.433837890625	82.591926574707	301.9646301269531	302.6504821777344	34.19305038452146	339.8018798828125	504.0859680175781	34.68731689453122	369.6812744140626	472.0869445800781	16.81069755554196	414.6126098632813	430.6456298828126	606.3631591796875	166.4002532958985	477.7690124511719	581.6558837890625	132.9188079833985	479.8494873046876	525.4073486328125	167.6703033447266	486.1092834472656	318.3204956054687	207.3485260009766	441.7770385742188	290.0980529785156	163.7750549316407	421.4884033203125	252.4641571044922	215.6829833984375	538.6045532226562	453.6839599609374	133.9862213134766	550.4052124023438	442.3004760742187	256.8088684082032	385.6843872070313	622.1768798828125	438.60205078125	439.8350524902344	577.0608520507812	431.0097351074219	396.2657165527344	522.7269287109375	424.2220764160156	448.3740539550781	316.4422912597656	336.6480407714844	432.8469848632812	263.9537658691406	388.6494140625	424.3145446777344	218.982192993164	334.6546325683594	420.9835510253906	441.3033142089844	412.3453979492188	406.3335266113281	428.1146240234375	285.0911865234375	397.6551818847657	968.8370361328125	151.9000396728516	396.2082824707032	985.2225952148438	441.8391723632812	443.8346862792969	849.4623413085938	291.6264343261719	443.8346862792969	-2.717703639512553e-14	291.6264343261719	8.059982299804689	2.523406744003295	-27.78618621826172	-8.941054344177244	-28.98190307617188	-63.11086654663086	1.060655355453491	7.294181823730469	2.698554515838623	-1.639006114180878e-16	0	2.676700115203857	-4.470292091369629	7.238790512084961	-4.215153694152832	1.543270945549011	-18.28841209411621	-6.232714653015137	0.3501622676849371	2.478571891784668	-7.047540187835693	4.311316140541728e-16	0	-7.040913581848145	0.8238832950592034	-2.944051265716553	8.021420478820801	-0.8238832950592043	2.944051265716553	8.021420478820801	0.969534695148468	4.018327713012695	2.826929330825806	-0.9695346951484685	-4.018327713012695	2.826929330825806	1.221575140953064	1.170887231826782	-5.233957767486572	-1.221575140953064	-1.170887231826782	-5.233957767486572	-6.431458950042729	-25.82046508789062	45.20981979370117	0.1588530689477859	-9.376223564147949	90.01726531982422	1.723272341737891e-18	0.02814317308366299	1.055199978684236e-34	-2.498437274447493e-17	-0.4080257713794708	-1.52985160551128e-33	7.212724672398032e-18	0.1177927330136299	4.416520091591696e-34	1.506921710967993e-18	0.02460989914834499	9.227234249513031e-35	4.290294944116937e-18	0.07006583362817764	2.62704798535544e-34	-6.714375683677924e-18	-0.109654076397419	-4.111369344644495e-34	9.442394117850108e-19	0.01542059984058142	5.781798866356466e-35	9.442394117850108e-19	0.01542059984058142	5.781798866356466e-35	nan	nan	nan	-0.2408851832151408	8.230866432189941	-0.3559469878673553	nan	nan	nan	3.628409624099737	83.90281677246094	-2.455506324768066	0.02229968830943107	0.009918841533362864	0.1248962879180908	0.2859156727790838	0.2925066351890564	-8.088358879089355	-0.08213770389556885	0.2394607365131378	0.1441106200218201	0.1955342888832088	-7.544858455657959	-1.24934446811676	-0.1326636373996734	1.041706800460815	-0.1133965775370598	0.6268771290779109	-6.749853610992432	-0.3905287981033325	-0.1031027287244799	-4.603971004486084	-0.5078378915786743	-0.1031027287244799	-4.603971004486084	-0.5078378915786743	nan	nan	nan	-929.479736328125	18.33139038085943	818.3378295898436	-2.590998485455185e-15	-6.043601036071777	18.58826446533203	-97.66368103027341	29.02278900146485	-433.1685180664062	14.76845264434815	-5.580397605895997	-61.90367889404297	-203.5179138183594	40.44637680053712	-94.66957855224611	-7.977385997772219	-13.41305351257324	30.49468421936035	-472.5757141113281	15.29149532318118	140.6800079345703	-74.49705505371095	-14.71079349517822	296.9028625488281	74.49705505371092	14.71079349517822	296.9028625488281	
159	1.58	582.3345947265625	484.5153198242187	197.9444427490235	914.8330078125	626.5054931640625	226.4579620361329	592.7191772460938	532.3599853515625	-161.4055633544922	437.8825683593751	814.7864990234375	237.7430877685547	429.649169921875	91.63156890869138	150.1333770751953	551.0763549804688	242.1366271972656	132.7526245117188	355.9678955078125	130.8324279785156	-25.17430114746092	297.2673950195312	207.8638305664062	231.763916015625	348.3496398925781	181.4080047607422	218.3751525878907	582.4935302734375	-12.35392761230472	25.3076324462891	185.4144897460938	286.7418823242188	-84.93826293945311	568.0560302734375	466.0186157226562	199.1912231445313	473.7763977050781	52.8874816894531	122.9231872558594	514.2521362304688	103.0558319091797	117.129623413086	449.2159729003906	65.95446014404294	64.48730468750003	429.6491394042969	91.63156127929685	150.1333770751953	435.7938537597657	816.0931396484375	304.4319763183594	568.6245727539062	803.8233642578125	308.8327331542969	439.9713439941407	813.4799194335938	171.0542144775391	448.1414489746094	948.9710693359375	302.2153015136719	423.3764038085938	476.7918701171875	352.0718688964844	762.94873046875	468.3517456054687	318.8652343750001	390.7078247070313	496.74951171875	12.92922973632815	433.7050476074219	817.3997802734375	371.1208190917969	502.7189331054688	54.06022644042966	379.8440856933594	502.9183044433594	247.5024719238281	379.1689758300782	534.2189331054688	53.36165618896481	188.9837493896485	311.8574829101562	54.1470031738281	348.3435974121094	369.2592163085938	66.66728973388669	345.0101013183594	746.66357421875	15.45976638793941	426.7724914550782	451.1811828613281	62.41436767578122	-35.79437255859372	420.2110900878906	452.8034057617188	351.6588439941406	566.33935546875	54.03130722045895	390.3442687988282	566.40576171875	118.5120544433593	390.1192321777344	576.83935546875	53.79845046997067	326.7241821289063	502.7188720703125	54.06020736694333	379.8440856933594	449.1135253906251	1285.115356445312	300.6341247558594	nan	nan	nan	nan	nan	nan	nan	nan	nan	344.2343750000001	1353.96923828125	296.9630126953125	316.5697631835938	1050.814331054688	294.4253845214844	453.5971374511719	1285.335205078125	300.9482116699219	503.5892944335938	1121.887573242188	311.3671264648438	313.9898071289063	1256.626220703125	419.1455688476562	487.0933532714844	898.943115234375	196.3109588623047	480.3306884765626	903.1734619140625	412.2252197265626	314.1125488281251	912.8764038085938	252.5748138427735	314.4968872070313	920.4177856445312	337.5855407714844	542.3690185546875	599.1994018554688	92.88785552978518	584.1384887695312	492.8264770507812	135.5211334228516	588.9342651367188	472.7872009277343	261.1910400390626	642.5714111328125	467.6898193359374	182.6398010253907	601.0006713867188	410.3073730468749	180.6280517578125	388.8152160644531	320.3086242675781	128.0498504638672	331.1536865234375	192.5247650146484	186.3639221191407	372.9368591308594	173.9187774658203	254.777572631836	273.0296325683594	180.3162536621093	241.9121551513672	409.692138671875	69.573860168457	157.2137145996094	366.6790161132812	77.34378814697263	124.903793334961	435.5949401855469	529.9569702148438	463.5060119628906	429.5981445312501	472.9909057617188	416.6616821289062	423.9543457031251	472.2258605957031	280.4977111816406	491.4895324707031	456.4454345703124	342.4529724121094	472.2500610351562	394.0581665039062	350.5961303710938	366.6806945800781	193.2667694091797	436.2008972167969	361.3727722167969	67.07669830322263	381.6691284179688	385.7164611816406	82.60851287841794	302.0807495117188	302.6482849121094	34.47925567626951	339.7742309570312	504.1333312988281	34.6080627441406	369.7633361816407	472.0702514648438	16.67701911926267	414.7351684570313	446.5158996582032	607.455810546875	164.9681243896485	494.6174621582032	583.7256469726562	132.3766326904297	496.0305175781251	527.1298828125	166.3316192626953	510.0047302246094	318.0677490234374	208.4241333007813	467.6851196289062	287.4930419921874	164.4311676025391	448.15966796875	249.2598571777343	216.3837127685547	557.9443359375	455.5297241210937	135.0090942382813	567.7728881835938	444.7885437011718	257.8598022460938	390.7881774902344	622.3515625	438.8438415527344	444.4859619140626	576.5325317382812	431.5374145507812	400.3850097656251	522.7505493164062	424.4177856445312	450.6622619628906	315.8892822265625	336.9756469726562	434.4957885742188	263.4256896972656	388.8291931152344	425.8385925292969	218.5997619628906	334.8050842285156	424.1968078613281	440.927001953125	412.6759948730469	409.5445556640625	427.9719543457031	285.2898864746094	409.1784362792969	969.108642578125	152.6081848144532	404.9036865234376	984.76611328125	442.5504150390625	454.8129882812501	849.0762939453125	292.1706848144531	454.81298828125	-2.784926351546377e-14	292.1706848144531	8.0455379486084	3.33129334449768	-28.7660083770752	-10.05214405059814	-29.10402297973633	-61.42587280273438	1.107905745506287	7.440658569335938	2.008741140365601	-1.219637834131686e-16	0	1.991819739341736	-4.264911651611327	7.424116134643555	-3.437061309814454	1.632255315780639	-18.00619697570801	-5.969977855682373	0.418131053447724	2.769217491149902	-7.558743476867676	4.622958861664548e-16	0	-7.549864768981934	0.5545608997344965	-2.209427356719971	8.028401374816895	-0.5545608997344974	2.209427356719971	8.028401374816895	0.9665734767913818	4.003188610076904	2.739588975906372	-0.9665734767913823	-4.003188610076904	2.739588975906372	0.9516332745552067	1.889788269996643	-5.308933734893799	-0.9516332745552061	-1.889788269996643	-5.308933734893799	-5.662041187286381	-24.8615837097168	48.71660995483398	0.2026691734790741	-9.371824264526367	89.97396087646484	1.653059712418769e-18	0.02699651382863522	1.012207142806545e-34	-2.702383014044499e-17	-0.4413326382637024	-1.654732354109886e-33	8.58682819243596e-18	0.1402335464954376	5.257915830347476e-34	8.63628639335714e-19	0.01410412602126598	5.288200244072331e-35	4.723296852319682e-18	0.077137291431427	2.892185185808033e-34	-7.020004686849395e-18	-0.1146453768014908	-4.298513134874765e-34	1.927613643837341e-18	0.03148031979799271	1.180322939459083e-34	1.927613643837341e-18	0.03148031979799271	1.180322939459083e-34	nan	nan	nan	-0.2081306278705592	8.227089881896973	-0.3538012206554413	nan	nan	nan	3.606536388397222	83.86431884765625	-2.121617078781128	0.01232398208230733	0.003881273325532674	0.1405933797359467	0.2821180224418645	0.2659248411655426	-8.085103034973145	-0.08355354517698288	0.2834276556968689	0.1475560516119003	0.1821053475141521	-7.535502910614014	-1.287467002868652	-0.1402031928300857	1.06218957901001	-0.163184717297554	0.6336280703544612	-6.728548526763916	-0.4613700211048126	-0.07884333282709147	-4.519323825836182	-0.5215594172477722	-0.07884333282709147	-4.519323825836182	-0.5215594172477722	nan	nan	nan	-935.3724975585938	23.00759506225592	852.5097656249999	1.981386598973356e-16	-3.041649341583252	20.24602890014648	-97.65349578857419	29.72914123535157	-467.9358825683594	10.49039745330811	-2.55583667755127	-60.23425674438477	-200.8169250488281	41.89057922363283	-78.2555618286133	-12.78825283050537	-14.06383991241455	38.15974044799805	-466.8460693359375	18.91726112365725	151.03466796875	-84.80807495117189	-15.60872268676757	315.5925903320312	84.80807495117186	15.60872268676757	315.5925903320312	
160	1.59	598.1939697265625	486.5766906738281	199.4911346435547	928.099609375	632.4044799804688	237.4858703613282	616.9990234375	537.4690551757812	-159.1221160888672	448.6756591796876	814.7403564453125	238.2217254638672	466.7099914550781	87.71707916259763	151.431869506836	579.55517578125	244.9734497070312	136.1081085205078	394.6806640625	122.1581115722656	-25.55403137207029	326.082275390625	196.2650451660156	229.7873992919922	378.8892517089844	172.7864532470703	217.5913238525391	625.0159301757812	-10.09317016601566	29.24533081054691	216.0450134277344	268.9364318847656	-88.56959533691405	584.8041381835938	467.4180297851562	200.5962219238282	513.5859375	51.53441619873044	125.3133544921875	551.2009887695312	103.9532165527343	120.205436706543	489.5761413574219	63.01477050781247	66.31803894042972	466.7100219726562	87.7170715332031	151.431884765625	445.7711181640626	815.81884765625	304.8841552734375	578.5278930664062	803.420654296875	310.8689880371094	451.5801086425782	813.6617431640625	171.559326171875	458.2526550292969	948.69287109375	303.2781677246094	427.7050476074219	476.4291076660156	352.3260803222656	767.4901123046875	462.9755249023437	322.6100158691407	398.8230590820313	496.8815307617188	12.81838989257815	442.8666381835938	816.8973999023438	371.5465698242188	502.9842834472656	53.94553375244138	379.9274291992188	503.3804321289062	247.3867492675781	379.0624694824219	534.4820556640625	53.02762985229489	189.0676727294922	312.1226806640625	54.19555282592771	348.4281616210938	369.5371704101562	66.65415191650388	345.0819702148438	746.1771240234375	11.7080688476562	428.8994750976563	453.4716186523438	61.46735382080075	-35.48370361328122	424.304443359375	452.4729614257812	351.9026184082031	566.604736328125	53.862190246582	390.4271850585938	566.73681640625	118.3425979614258	390.1388549804688	577.10400390625	53.55619812011715	326.8072814941407	502.9842529296875	53.94553756713864	379.9273986816407	459.4155883789063	1284.928466796875	300.8072814941406	nan	nan	nan	nan	nan	nan	nan	nan	nan	354.9636840820313	1353.854736328125	297.7059631347656	326.7135925292969	1050.710327148438	294.6645812988281	463.8996276855469	1285.140625	301.12060546875	513.6837158203126	1121.668701171875	312.0892028808594	324.7264709472657	1256.738525390625	420.4327087402344	498.4583740234376	898.9971923828125	197.6877136230469	489.0547790527344	902.4890747070312	413.5140686035157	324.6648559570313	912.6573486328125	251.5507202148438	323.9437561035157	920.3849487304688	336.5684509277344	559.4441528320312	601.7415161132812	93.93758392333987	601.4603271484375	495.4166564941406	137.1999969482422	604.513427734375	475.3500976562499	262.6352844238282	659.7113647460938	471.9809265136718	184.8954772949219	620.4063720703125	413.6809387207031	182.3961486816407	413.8854064941406	313.0460815429688	127.134750366211	361.6933288574219	182.9396362304687	185.2615661621094	403.3814086914062	166.890151977539	254.4928588867188	303.0958251953125	167.7035217285156	239.8728942871094	447.7230529785156	64.8595275878906	158.3304748535157	404.9561462402344	69.78290557861325	125.1454696655274	439.5679626464844	529.572998046875	463.9110107421875	433.2048034667969	472.5344848632812	416.9757690429688	428.0602111816407	471.9643859863281	280.7841186523438	495.251708984375	455.0619812011718	343.1896667480469	475.2362060546875	393.1799621582031	351.0044555664063	367.7299194335938	193.3576049804687	436.2626647949219	361.4613037109375	67.153205871582	381.6986083984375	386.021484375	82.62133026123044	302.1459655761719	302.7046203613281	34.76726150512693	339.705810546875	504.1766357421875	34.5302925109863	369.8285827636719	472.0597839355469	16.55607414245603	414.8243408203126	461.8403320312501	608.4384155273438	163.7940979003907	510.9244384765626	585.61181640625	132.155029296875	511.7089843750001	528.5989990234375	165.2571258544922	533.6831665039062	317.4771423339843	209.4856719970703	493.656005859375	284.5874938964843	165.0486145019532	475.0327453613281	245.6495513916015	217.0211791992188	576.5650024414062	457.0748901367187	136.1399078369141	584.4274291992188	446.7907409667968	259.0082092285157	395.9577331542969	622.4579467773438	439.0010986328125	449.1764221191407	575.9645385742188	431.9834899902344	404.5481262207032	522.7715454101562	424.4872131347656	452.9744567871094	315.292236328125	337.2301940917969	436.2029724121094	262.9142456054688	388.9677734375	427.3666076660156	218.2293090820312	334.8944396972656	427.4371337890625	440.5574951171875	412.9097900390625	412.9081115722656	427.7993774414062	285.42626953125	420.5476379394532	969.1365356445312	153.2728424072266	413.6149291992188	984.1537475585938	443.1557312011719	465.7793884277344	848.5055541992188	292.6433715820313	465.7793884277344	-2.852076185734183e-14	292.6433715820313	8.00363349914551	4.143653869628905	-29.61156463623047	-11.02564430236816	-29.38735771179199	-59.38534545898438	1.187967538833619	7.688614368438721	1.4007648229599	-8.50008538000911e-17	0	1.388169288635254	-4.038912296295165	7.541744709014893	-2.640113353729248	1.720132827758788	-17.71295928955078	-5.703609943389893	0.4877627491950995	3.066822290420532	-8.071922302246094	4.935500876720611e-16	0	-8.060284614562988	0.2832019031047815	-1.519676327705383	8.007786750793457	-0.2832019031047825	1.519676327705383	8.007786750793457	0.9722540378570558	3.993411779403687	2.642282962799072	-0.972254037857056	-3.993411779403687	2.642282962799072	0.689429104328156	2.570230960845947	-5.366335868835449	-0.6894291043281553	-2.570230960845947	-5.366335868835449	-4.948441505432134	-23.80093193054199	52.33610916137695	0.2596655189990937	-9.371459007263184	89.92495727539062	1.463804348903678e-18	0.02390573918819427	8.963216552314325e-35	-2.925970698143236e-17	-0.4778472781181335	-1.79164032494003e-33	9.696710742255342e-18	0.1583593040704727	5.93752288638038e-34	2.119389175723526e-19	0.003461225191131234	1.297751585098682e-35	4.932217541431308e-18	0.08054922521114349	3.02011221240614e-34	-7.598734914100293e-18	-0.1240967586636543	-4.652883195061081e-34	2.680163492029869e-18	0.04377039149403572	1.641126820852986e-34	2.680163492029869e-18	0.04377039149403572	1.641126820852986e-34	nan	nan	nan	-0.1791473627090449	8.231039047241211	-0.3510841727256775	nan	nan	nan	3.578839540481573	83.90457153320312	-1.826170921325683	0.003580499906092873	-0.00266416440717876	0.1559988558292389	0.2752800881862645	0.2424769103527069	-8.089441299438477	-0.08069436997175217	0.3335162103176117	0.1520180553197861	0.1684258729219433	-7.532473087310791	-1.329992532730103	-0.1332238912582397	1.087679386138916	-0.2162680476903915	0.6522914171218868	-6.709456443786621	-0.5277115702629089	-0.01553026027977491	-4.437433242797852	-0.5235587954521179	-0.01553026027977491	-4.437433242797852	-0.5235587954521179	nan	nan	nan	-941.7460327148438	27.50734519958502	889.3012084960936	-1.072966151630284e-15	-0.4365902245044708	21.50686454772949	-98.08053588867185	30.52618217468262	-504.6225280761719	6.3952751159668	0.07974471896886787	-57.07842636108398	-198.04052734375	43.51444625854494	-61.45759582519533	-14.16157341003418	-14.11993312835693	47.50027465820312	-462.63525390625	22.72358703613284	162.3739013671875	-86.62129974365236	-14.29159927368164	335.92822265625	86.62129974365233	14.29159927368164	335.92822265625	
